<?xml version="1.0" encoding="UTF-8" standalone="no"?>
<!DOCTYPE svg PUBLIC "-//W3C//DTD SVG 1.1//EN"
 "http://www.w3.org/Graphics/SVG/1.1/DTD/svg11.dtd">
<!-- Generated by graphviz version 16.1.0 (0)
 -->
<!-- Title: review_workflow Pages: 1 -->
<svg width="947pt" height="325pt"
 viewBox="0.00 0.00 947.00 325.00" xmlns="http://www.w3.org/2000/svg" xmlns:xlink="http://www.w3.org/1999/xlink">
<g id="graph0" class="graph" transform="scale(1 1) rotate(0) translate(4 321.25)">
<title>review_workflow</title>
<polygon fill="white" stroke="none" points="-4,4 -4,-321.25 943.36,-321.25 943.36,4 -4,4"/>
<!-- wave_a -->
<g id="node1" class="node">
<title>wave_a</title>
<path fill="#cfe2f3" stroke="black" d="M55.75,-254C55.75,-254 12,-254 12,-254 6,-254 0,-248 0,-242 0,-242 0,-230 0,-230 0,-224 6,-218 12,-218 12,-218 55.75,-218 55.75,-218 61.75,-218 67.75,-224 67.75,-230 67.75,-230 67.75,-242 67.75,-242 67.75,-248 61.75,-254 55.75,-254"/>
<text xml:space="preserve" text-anchor="middle" x="33.88" y="-231.32" font-family="Helvetica,sans-Serif" font-size="14.00">Wave A</text>
</g>
<!-- correctness -->
<g id="node5" class="node">
<title>correctness</title>
<path fill="#fff2cc" stroke="black" d="M240.62,-317.25C240.62,-317.25 118.88,-317.25 118.88,-317.25 112.88,-317.25 106.88,-311.25 106.88,-305.25 106.88,-305.25 106.88,-286.75 106.88,-286.75 106.88,-280.75 112.88,-274.75 118.88,-274.75 118.88,-274.75 240.62,-274.75 240.62,-274.75 246.62,-274.75 252.62,-280.75 252.62,-286.75 252.62,-286.75 252.62,-305.25 252.62,-305.25 252.62,-311.25 246.62,-317.25 240.62,-317.25"/>
<text xml:space="preserve" text-anchor="middle" x="179.75" y="-299.95" font-family="Helvetica,sans-Serif" font-size="14.00">review&#45;correctness</text>
<text xml:space="preserve" text-anchor="middle" x="179.75" y="-282.7" font-family="Helvetica,sans-Serif" font-size="14.00">run 1</text>
</g>
<!-- wave_a&#45;&gt;correctness -->
<g id="edge21" class="edge">
<title>wave_a&#45;&gt;correctness</title>
<path fill="none" stroke="black" d="M68.24,-249.92C82.61,-255.91 99.89,-263.11 116.48,-270.03"/>
<polygon fill="black" stroke="black" points="114.71,-273.08 125.28,-273.7 117.4,-266.62 114.71,-273.08"/>
</g>
<!-- readability -->
<g id="node6" class="node">
<title>readability</title>
<path fill="#fff2cc" stroke="black" d="M237.25,-257.25C237.25,-257.25 122.25,-257.25 122.25,-257.25 116.25,-257.25 110.25,-251.25 110.25,-245.25 110.25,-245.25 110.25,-226.75 110.25,-226.75 110.25,-220.75 116.25,-214.75 122.25,-214.75 122.25,-214.75 237.25,-214.75 237.25,-214.75 243.25,-214.75 249.25,-220.75 249.25,-226.75 249.25,-226.75 249.25,-245.25 249.25,-245.25 249.25,-251.25 243.25,-257.25 237.25,-257.25"/>
<text xml:space="preserve" text-anchor="middle" x="179.75" y="-239.95" font-family="Helvetica,sans-Serif" font-size="14.00">review&#45;readability</text>
<text xml:space="preserve" text-anchor="middle" x="179.75" y="-222.7" font-family="Helvetica,sans-Serif" font-size="14.00">run 1</text>
</g>
<!-- wave_a&#45;&gt;readability -->
<g id="edge22" class="edge">
<title>wave_a&#45;&gt;readability</title>
<path fill="none" stroke="black" d="M68.24,-236C77.49,-236 87.93,-236 98.62,-236"/>
<polygon fill="black" stroke="black" points="98.3,-239.5 108.3,-236 98.3,-232.5 98.3,-239.5"/>
</g>
<!-- repeat_a1 -->
<!-- wave_a&#45;&gt;repeat_a1 -->
<g id="edge29" class="edge">
<title>wave_a&#45;&gt;repeat_a1</title>
<path fill="none" stroke="black" stroke-dasharray="5,2" d="M75.77,-212.1C91.94,-202.65 106.75,-194 106.75,-194 106.75,-194 176.52,-180.43 178.7,-180.01"/>
<polygon fill="black" stroke="black" points="74.37,-208.87 67.5,-216.94 77.9,-214.91 74.37,-208.87"/>
</g>
<!-- wave_b -->
<g id="node2" class="node">
<title>wave_b</title>
<path fill="#cfe2f3" stroke="black" d="M55.75,-104C55.75,-104 12,-104 12,-104 6,-104 0,-98 0,-92 0,-92 0,-80 0,-80 0,-74 6,-68 12,-68 12,-68 55.75,-68 55.75,-68 61.75,-68 67.75,-74 67.75,-80 67.75,-80 67.75,-92 67.75,-92 67.75,-98 61.75,-104 55.75,-104"/>
<text xml:space="preserve" text-anchor="middle" x="33.88" y="-81.33" font-family="Helvetica,sans-Serif" font-size="14.00">Wave B</text>
</g>
<!-- tests -->
<g id="node7" class="node">
<title>tests</title>
<path fill="#fff2cc" stroke="black" d="M217.75,-107.25C217.75,-107.25 141.75,-107.25 141.75,-107.25 135.75,-107.25 129.75,-101.25 129.75,-95.25 129.75,-95.25 129.75,-76.75 129.75,-76.75 129.75,-70.75 135.75,-64.75 141.75,-64.75 141.75,-64.75 217.75,-64.75 217.75,-64.75 223.75,-64.75 229.75,-70.75 229.75,-76.75 229.75,-76.75 229.75,-95.25 229.75,-95.25 229.75,-101.25 223.75,-107.25 217.75,-107.25"/>
<text xml:space="preserve" text-anchor="middle" x="179.75" y="-89.95" font-family="Helvetica,sans-Serif" font-size="14.00">review&#45;tests</text>
<text xml:space="preserve" text-anchor="middle" x="179.75" y="-72.7" font-family="Helvetica,sans-Serif" font-size="14.00">run 1</text>
</g>
<!-- wave_b&#45;&gt;tests -->
<g id="edge36" class="edge">
<title>wave_b&#45;&gt;tests</title>
<path fill="none" stroke="black" d="M68.24,-86C83.16,-86 101.21,-86 118.36,-86"/>
<polygon fill="black" stroke="black" points="117.95,-89.5 127.95,-86 117.95,-82.5 117.95,-89.5"/>
</g>
<!-- docs -->
<g id="node8" class="node">
<title>docs</title>
<path fill="#fff2cc" stroke="black" d="M217,-47.25C217,-47.25 142.5,-47.25 142.5,-47.25 136.5,-47.25 130.5,-41.25 130.5,-35.25 130.5,-35.25 130.5,-16.75 130.5,-16.75 130.5,-10.75 136.5,-4.75 142.5,-4.75 142.5,-4.75 217,-4.75 217,-4.75 223,-4.75 229,-10.75 229,-16.75 229,-16.75 229,-35.25 229,-35.25 229,-41.25 223,-47.25 217,-47.25"/>
<text xml:space="preserve" text-anchor="middle" x="179.75" y="-29.95" font-family="Helvetica,sans-Serif" font-size="14.00">review&#45;docs</text>
<text xml:space="preserve" text-anchor="middle" x="179.75" y="-12.7" font-family="Helvetica,sans-Serif" font-size="14.00">run 1</text>
</g>
<!-- wave_b&#45;&gt;docs -->
<g id="edge37" class="edge">
<title>wave_b&#45;&gt;docs</title>
<path fill="none" stroke="black" d="M68.24,-72.08C83.58,-65.69 102.24,-57.91 119.82,-50.58"/>
<polygon fill="black" stroke="black" points="120.74,-53.99 128.62,-46.91 118.04,-47.52 120.74,-53.99"/>
</g>
<!-- handoff_1 -->
<g id="node27" class="node">
<title>handoff_1</title>
<ellipse fill="black" stroke="black" stroke-width="0" cx="179.75" cy="-143" rx="1.01" ry="1.01"/>
</g>
<!-- wave_b&#45;&gt;handoff_1 -->
<g id="edge33" class="edge">
<title>wave_b&#45;&gt;handoff_1</title>
<path fill="none" stroke="black" stroke-width="2" d="M77.13,-110.69C92.76,-119.83 106.75,-128 106.75,-128 106.75,-128 176.52,-142.53 178.7,-142.99"/>
<polygon fill="black" stroke="black" stroke-width="2" points="79.2,-107.85 68.8,-105.83 75.67,-113.89 79.2,-107.85"/>
</g>
<!-- apply_a -->
<g id="node3" class="node">
<title>apply_a</title>
<path fill="#cfe2f3" stroke="black" d="M927.36,-251.25C927.36,-251.25 849.11,-251.25 849.11,-251.25 843.11,-251.25 837.11,-245.25 837.11,-239.25 837.11,-239.25 837.11,-220.75 837.11,-220.75 837.11,-214.75 843.11,-208.75 849.11,-208.75 849.11,-208.75 927.36,-208.75 927.36,-208.75 933.36,-208.75 939.36,-214.75 939.36,-220.75 939.36,-220.75 939.36,-239.25 939.36,-239.25 939.36,-245.25 933.36,-251.25 927.36,-251.25"/>
<text xml:space="preserve" text-anchor="middle" x="888.23" y="-233.95" font-family="Helvetica,sans-Serif" font-size="14.00">main agent</text>
<text xml:space="preserve" text-anchor="middle" x="888.23" y="-216.7" font-family="Helvetica,sans-Serif" font-size="14.00">applies fixes</text>
</g>
<!-- apply_b -->
<g id="node4" class="node">
<title>apply_b</title>
<path fill="#cfe2f3" stroke="black" d="M927.36,-96.25C927.36,-96.25 849.11,-96.25 849.11,-96.25 843.11,-96.25 837.11,-90.25 837.11,-84.25 837.11,-84.25 837.11,-65.75 837.11,-65.75 837.11,-59.75 843.11,-53.75 849.11,-53.75 849.11,-53.75 927.36,-53.75 927.36,-53.75 933.36,-53.75 939.36,-59.75 939.36,-65.75 939.36,-65.75 939.36,-84.25 939.36,-84.25 939.36,-90.25 933.36,-96.25 927.36,-96.25"/>
<text xml:space="preserve" text-anchor="middle" x="888.23" y="-78.95" font-family="Helvetica,sans-Serif" font-size="14.00">main agent</text>
<text xml:space="preserve" text-anchor="middle" x="888.23" y="-61.7" font-family="Helvetica,sans-Serif" font-size="14.00">applies fixes</text>
</g>
<!-- apply_b&#45;&gt;wave_b -->
<g id="edge44" class="edge">
<title>apply_b&#45;&gt;wave_b</title>
<path fill="none" stroke="black" stroke-dasharray="5,2" d="M836.68,-61.95C816.57,-56.76 798.11,-52 798.11,-52 798.11,-52 437.75,0 437.75,0 437.75,0 106.75,0 106.75,0 106.75,0 78.56,-33.73 57.49,-58.94"/>
<polygon fill="black" stroke="black" points="54.82,-56.68 51.09,-66.6 60.19,-61.17 54.82,-56.68"/>
<text xml:space="preserve" text-anchor="middle" x="472.5" y="-10.47" font-family="Helvetica,sans-Serif" font-size="10.00">repeat</text>
</g>
<!-- correctness&#45;&gt;readability -->
<!-- correctness_n -->
<g id="node9" class="node">
<title>correctness_n</title>
<path fill="#fff2cc" stroke="black" stroke-dasharray="1,5" d="M425.62,-317.25C425.62,-317.25 303.88,-317.25 303.88,-317.25 297.88,-317.25 291.88,-311.25 291.88,-305.25 291.88,-305.25 291.88,-286.75 291.88,-286.75 291.88,-280.75 297.88,-274.75 303.88,-274.75 303.88,-274.75 425.62,-274.75 425.62,-274.75 431.62,-274.75 437.62,-280.75 437.62,-286.75 437.62,-286.75 437.62,-305.25 437.62,-305.25 437.62,-311.25 431.62,-317.25 425.62,-317.25"/>
<text xml:space="preserve" text-anchor="middle" x="364.75" y="-299.95" font-family="Helvetica,sans-Serif" font-size="14.00">review&#45;correctness</text>
<text xml:space="preserve" text-anchor="middle" x="364.75" y="-282.7" font-family="Helvetica,sans-Serif" font-size="14.00">run 2 … N</text>
</g>
<!-- correctness&#45;&gt;correctness_n -->
<g id="edge23" class="edge">
<title>correctness&#45;&gt;correctness_n</title>
<path fill="none" stroke="black" stroke-dasharray="1,5" d="M253.08,-296C262,-296 271.17,-296 280.24,-296"/>
<polygon fill="black" stroke="black" points="280.14,-299.5 290.14,-296 280.14,-292.5 280.14,-299.5"/>
</g>
<!-- readability_n -->
<g id="node10" class="node">
<title>readability_n</title>
<path fill="#fff2cc" stroke="black" stroke-dasharray="1,5" d="M422.25,-257.25C422.25,-257.25 307.25,-257.25 307.25,-257.25 301.25,-257.25 295.25,-251.25 295.25,-245.25 295.25,-245.25 295.25,-226.75 295.25,-226.75 295.25,-220.75 301.25,-214.75 307.25,-214.75 307.25,-214.75 422.25,-214.75 422.25,-214.75 428.25,-214.75 434.25,-220.75 434.25,-226.75 434.25,-226.75 434.25,-245.25 434.25,-245.25 434.25,-251.25 428.25,-257.25 422.25,-257.25"/>
<text xml:space="preserve" text-anchor="middle" x="364.75" y="-239.95" font-family="Helvetica,sans-Serif" font-size="14.00">review&#45;readability</text>
<text xml:space="preserve" text-anchor="middle" x="364.75" y="-222.7" font-family="Helvetica,sans-Serif" font-size="14.00">run 2 … N</text>
</g>
<!-- readability&#45;&gt;readability_n -->
<g id="edge24" class="edge">
<title>readability&#45;&gt;readability_n</title>
<path fill="none" stroke="black" stroke-dasharray="1,5" d="M249.67,-236C260.77,-236 272.33,-236 283.66,-236"/>
<polygon fill="black" stroke="black" points="283.37,-239.5 293.37,-236 283.37,-232.5 283.37,-239.5"/>
</g>
<!-- bracket_a1 -->
<g id="node17" class="node">
<title>bracket_a1</title>
<polyline fill="none" stroke="black" points="106.75,-206 106.75,-198 252.75,-198"/>
</g>
<!-- readability&#45;&gt;bracket_a1 -->
<!-- tests&#45;&gt;docs -->
<!-- tests_n -->
<g id="node11" class="node">
<title>tests_n</title>
<path fill="#fff2cc" stroke="black" stroke-dasharray="1,5" d="M402.75,-107.25C402.75,-107.25 326.75,-107.25 326.75,-107.25 320.75,-107.25 314.75,-101.25 314.75,-95.25 314.75,-95.25 314.75,-76.75 314.75,-76.75 314.75,-70.75 320.75,-64.75 326.75,-64.75 326.75,-64.75 402.75,-64.75 402.75,-64.75 408.75,-64.75 414.75,-70.75 414.75,-76.75 414.75,-76.75 414.75,-95.25 414.75,-95.25 414.75,-101.25 408.75,-107.25 402.75,-107.25"/>
<text xml:space="preserve" text-anchor="middle" x="364.75" y="-89.95" font-family="Helvetica,sans-Serif" font-size="14.00">review&#45;tests</text>
<text xml:space="preserve" text-anchor="middle" x="364.75" y="-72.7" font-family="Helvetica,sans-Serif" font-size="14.00">run 2 … N</text>
</g>
<!-- tests&#45;&gt;tests_n -->
<g id="edge38" class="edge">
<title>tests&#45;&gt;tests_n</title>
<path fill="none" stroke="black" stroke-dasharray="1,5" d="M229.79,-86C252.26,-86 279.13,-86 302.88,-86"/>
<polygon fill="black" stroke="black" points="302.74,-89.5 312.74,-86 302.74,-82.5 302.74,-89.5"/>
</g>
<!-- docs_n -->
<g id="node12" class="node">
<title>docs_n</title>
<path fill="#fff2cc" stroke="black" stroke-dasharray="1,5" d="M402,-47.25C402,-47.25 327.5,-47.25 327.5,-47.25 321.5,-47.25 315.5,-41.25 315.5,-35.25 315.5,-35.25 315.5,-16.75 315.5,-16.75 315.5,-10.75 321.5,-4.75 327.5,-4.75 327.5,-4.75 402,-4.75 402,-4.75 408,-4.75 414,-10.75 414,-16.75 414,-16.75 414,-35.25 414,-35.25 414,-41.25 408,-47.25 402,-47.25"/>
<text xml:space="preserve" text-anchor="middle" x="364.75" y="-29.95" font-family="Helvetica,sans-Serif" font-size="14.00">review&#45;docs</text>
<text xml:space="preserve" text-anchor="middle" x="364.75" y="-12.7" font-family="Helvetica,sans-Serif" font-size="14.00">run 2 … N</text>
</g>
<!-- docs&#45;&gt;docs_n -->
<g id="edge39" class="edge">
<title>docs&#45;&gt;docs_n</title>
<path fill="none" stroke="black" stroke-dasharray="1,5" d="M229.31,-26C252.25,-26 279.86,-26 304.07,-26"/>
<polygon fill="black" stroke="black" points="303.77,-29.5 313.77,-26 303.77,-22.5 303.77,-29.5"/>
</g>
<!-- correctness_n&#45;&gt;readability_n -->
<!-- judge_a -->
<g id="node13" class="node">
<title>judge_a</title>
<path fill="#d9ead3" stroke="black" stroke-width="2" d="M600.5,-251.25C600.5,-251.25 519.25,-251.25 519.25,-251.25 513.25,-251.25 507.25,-245.25 507.25,-239.25 507.25,-239.25 507.25,-220.75 507.25,-220.75 507.25,-214.75 513.25,-208.75 519.25,-208.75 519.25,-208.75 600.5,-208.75 600.5,-208.75 606.5,-208.75 612.5,-214.75 612.5,-220.75 612.5,-220.75 612.5,-239.25 612.5,-239.25 612.5,-245.25 606.5,-251.25 600.5,-251.25"/>
<text xml:space="preserve" text-anchor="middle" x="559.88" y="-233.95" font-family="Helvetica,sans-Serif" font-size="14.00">review&#45;judge</text>
<text xml:space="preserve" text-anchor="middle" x="559.88" y="-216.7" font-family="Helvetica,sans-Serif" font-size="14.00">(opt&#45;in)</text>
</g>
<!-- correctness_n&#45;&gt;judge_a -->
<g id="edge25" class="edge">
<title>correctness_n&#45;&gt;judge_a</title>
<path fill="none" stroke="black" d="M429.25,-274.3C450.79,-266.94 474.82,-258.72 496.29,-251.39"/>
<polygon fill="black" stroke="black" points="497.16,-254.79 505.49,-248.24 494.9,-248.17 497.16,-254.79"/>
</g>
<!-- readability_n&#45;&gt;judge_a -->
<g id="edge26" class="edge">
<title>readability_n&#45;&gt;judge_a</title>
<path fill="none" stroke="black" d="M434.65,-233.86C454.58,-233.24 476.21,-232.57 495.76,-231.96"/>
<polygon fill="black" stroke="black" points="495.6,-235.47 505.49,-231.66 495.39,-228.47 495.6,-235.47"/>
</g>
<!-- bracket_a2 -->
<g id="node18" class="node">
<title>bracket_a2</title>
<polyline fill="none" stroke="black" points="291.75,-198 437.75,-198 437.75,-206"/>
</g>
<!-- readability_n&#45;&gt;bracket_a2 -->
<!-- tests_n&#45;&gt;docs_n -->
<!-- judge_b -->
<g id="node14" class="node">
<title>judge_b</title>
<path fill="#d9ead3" stroke="black" stroke-width="2" d="M600.5,-96.25C600.5,-96.25 519.25,-96.25 519.25,-96.25 513.25,-96.25 507.25,-90.25 507.25,-84.25 507.25,-84.25 507.25,-65.75 507.25,-65.75 507.25,-59.75 513.25,-53.75 519.25,-53.75 519.25,-53.75 600.5,-53.75 600.5,-53.75 606.5,-53.75 612.5,-59.75 612.5,-65.75 612.5,-65.75 612.5,-84.25 612.5,-84.25 612.5,-90.25 606.5,-96.25 600.5,-96.25"/>
<text xml:space="preserve" text-anchor="middle" x="559.88" y="-78.95" font-family="Helvetica,sans-Serif" font-size="14.00">review&#45;judge</text>
<text xml:space="preserve" text-anchor="middle" x="559.88" y="-61.7" font-family="Helvetica,sans-Serif" font-size="14.00">(opt&#45;in)</text>
</g>
<!-- tests_n&#45;&gt;judge_b -->
<g id="edge40" class="edge">
<title>tests_n&#45;&gt;judge_b</title>
<path fill="none" stroke="black" d="M415.23,-83.18C439.67,-81.79 469.43,-80.09 495.51,-78.61"/>
<polygon fill="black" stroke="black" points="495.52,-82.11 505.31,-78.05 495.12,-75.13 495.52,-82.11"/>
</g>
<!-- docs_n&#45;&gt;judge_b -->
<g id="edge41" class="edge">
<title>docs_n&#45;&gt;judge_b</title>
<path fill="none" stroke="black" d="M414.48,-38.36C439.12,-44.62 469.32,-52.28 495.72,-58.98"/>
<polygon fill="black" stroke="black" points="494.75,-62.34 505.3,-61.41 496.47,-55.56 494.75,-62.34"/>
</g>
<!-- user_a -->
<g id="node15" class="node">
<title>user_a</title>
<ellipse fill="lightgrey" stroke="black" cx="724.8" cy="-230" rx="73.3" ry="18"/>
<text xml:space="preserve" text-anchor="middle" x="724.8" y="-225.32" font-family="Helvetica,sans-Serif" font-size="14.00">user decides</text>
</g>
<!-- judge_a&#45;&gt;user_a -->
<g id="edge27" class="edge">
<title>judge_a&#45;&gt;user_a</title>
<path fill="none" stroke="black" d="M612.87,-230C621.55,-230 630.74,-230 639.97,-230"/>
<polygon fill="black" stroke="black" points="639.7,-233.5 649.7,-230 639.7,-226.5 639.7,-233.5"/>
</g>
<!-- user_b -->
<g id="node16" class="node">
<title>user_b</title>
<ellipse fill="lightgrey" stroke="black" cx="724.8" cy="-75" rx="73.3" ry="18"/>
<text xml:space="preserve" text-anchor="middle" x="724.8" y="-70.33" font-family="Helvetica,sans-Serif" font-size="14.00">user decides</text>
</g>
<!-- judge_b&#45;&gt;user_b -->
<g id="edge42" class="edge">
<title>judge_b&#45;&gt;user_b</title>
<path fill="none" stroke="black" d="M612.87,-75C621.55,-75 630.74,-75 639.97,-75"/>
<polygon fill="black" stroke="black" points="639.7,-78.5 649.7,-75 639.7,-71.5 639.7,-78.5"/>
</g>
<!-- user_a&#45;&gt;apply_a -->
<g id="edge28" class="edge">
<title>user_a&#45;&gt;apply_a</title>
<path fill="none" stroke="black" d="M798.49,-230C807.45,-230 816.55,-230 825.33,-230"/>
<polygon fill="black" stroke="black" points="825.14,-233.5 835.14,-230 825.14,-226.5 825.14,-233.5"/>
</g>
<!-- user_b&#45;&gt;apply_b -->
<g id="edge43" class="edge">
<title>user_b&#45;&gt;apply_b</title>
<path fill="none" stroke="black" d="M798.49,-75C807.45,-75 816.55,-75 825.33,-75"/>
<polygon fill="black" stroke="black" points="825.14,-78.5 835.14,-75 825.14,-71.5 825.14,-78.5"/>
</g>
<!-- bracket_a1&#45;&gt;bracket_a2 -->
<g id="edge17" class="edge">
<title>bracket_a1:se&#45;&gt;bracket_a2:sw</title>
<path fill="none" stroke="black" d="M184.44,-198.31C184.44,-198.31 291.75,-198 291.75,-198 291.75,-198 361.06,-198 361.06,-198 361.06,-198 362.06,-198.31 362.06,-198.31"/>
</g>
<!-- bracket_a1&#45;&gt;repeat_a1 -->
<!-- repeat_a2 -->
<!-- bracket_a2&#45;&gt;repeat_a2 -->
<!-- bracket_b1 -->
<g id="node19" class="node">
<title>bracket_b1</title>
<polyline fill="none" stroke="black" points="229.75,-124 129.75,-124 129.75,-116"/>
</g>
<!-- bracket_b1&#45;&gt;tests -->
<!-- bracket_b2 -->
<g id="node20" class="node">
<title>bracket_b2</title>
<polyline fill="none" stroke="black" points="414.75,-116 414.75,-124 314.75,-124"/>
</g>
<!-- bracket_b1&#45;&gt;bracket_b2 -->
<g id="edge18" class="edge">
<title>bracket_b1:ne&#45;&gt;bracket_b2:nw</title>
<path fill="none" stroke="black" d="M182.57,-123.82C182.57,-123.82 183.57,-124 183.57,-124 183.57,-124 229.75,-124 229.75,-124 229.75,-124 359.93,-123.82 359.93,-123.82"/>
</g>
<!-- bracket_b2&#45;&gt;tests_n -->
<!-- repeat_a1&#45;&gt;repeat_a2 -->
<g id="edge30" class="edge">
<title>repeat_a1&#45;&gt;repeat_a2</title>
<path fill="none" stroke="black" stroke-dasharray="5,2" d="M180.88,-180C186.34,-180 358.25,-180 363.62,-180"/>
</g>
<!-- note_1 -->
<!-- repeat_a1&#45;&gt;note_1 -->
<!-- repeat_a3 -->
<!-- repeat_a2&#45;&gt;repeat_a3 -->
<g id="edge31" class="edge">
<title>repeat_a2&#45;&gt;repeat_a3</title>
<path fill="none" stroke="black" stroke-dasharray="5,2" d="M365.8,-180C369.67,-180.17 613.69,-190.66 621.32,-190.99"/>
<text xml:space="preserve" text-anchor="middle" x="472.5" y="-188.49" font-family="Helvetica,sans-Serif" font-size="10.00">repeat</text>
</g>
<!-- note_2 -->
<!-- repeat_a2&#45;&gt;note_2 -->
<!-- repeat_a3&#45;&gt;apply_a -->
<g id="edge32" class="edge">
<title>repeat_a3&#45;&gt;apply_a</title>
<path fill="none" stroke="black" stroke-dasharray="5,2" d="M622.71,-191.01C624.8,-191.12 641.5,-192 641.5,-192 641.5,-192 641.5,-192 818.11,-192 818.11,-192 832.3,-199.8 847.83,-208.34"/>
</g>
<!-- note -->
<!-- note_1&#45;&gt;note -->
<g id="edge19" class="edge">
<title>note_1&#45;&gt;note</title>
<path fill="none" stroke="none" d="M180.82,-162C183.49,-162 266.32,-162 271.5,-162"/>
<text xml:space="preserve" text-anchor="middle" x="271.5" y="-158.88" font-family="Helvetica,sans-Serif" font-size="10.00">number of runs auto scales with reviewed diff size</text>
</g>
<!-- note_1&#45;&gt;handoff_1 -->
<!-- note&#45;&gt;note_2 -->
<!-- handoff_2 -->
<g id="node28" class="node">
<title>handoff_2</title>
<ellipse fill="black" stroke="black" stroke-width="0" cx="364.75" cy="-143" rx="1.01" ry="1.01"/>
</g>
<!-- note_2&#45;&gt;handoff_2 -->
<!-- handoff_1&#45;&gt;bracket_b1 -->
<!-- handoff_1&#45;&gt;handoff_2 -->
<g id="edge34" class="edge">
<title>handoff_1&#45;&gt;handoff_2</title>
<path fill="none" stroke="black" stroke-width="2" d="M180.88,-143C186.34,-143 358.25,-143 363.62,-143"/>
</g>
<!-- handoff_2&#45;&gt;apply_a -->
<g id="edge35" class="edge">
<title>handoff_2&#45;&gt;apply_a</title>
<path fill="none" stroke="black" stroke-width="2" d="M365.83,-143.01C369.03,-143.37 471.5,-155 471.5,-155 471.5,-155 471.5,-155 818.11,-155 818.11,-155 846.83,-186.16 867.24,-208.31"/>
</g>
<!-- handoff_2&#45;&gt;bracket_b2 -->
</g>
</svg>
